<svg width="60" height="60" viewBox="0 0 49 45" fill="none" xmlns="http://www.w3.org/2000/svg">
<path d="M8.42419 33.8134V10.2894H16.8321C19.0882 10.2894 20.7305 10.7058 21.7591 11.5386C22.7876 12.3714 23.3019 13.745 23.3019 15.6596V16.6898C23.3458 17.65 23.0702 18.5971 22.52 19.377C21.9127 20.113 21.0611 20.5944 20.1279 20.7293C21.5293 20.9954 22.4667 21.6207 22.9404 22.6052C23.4457 23.7339 23.6902 24.9662 23.655 26.2067C23.6789 27.5626 23.4887 28.9135 23.0917 30.2075C22.7398 31.3133 22.0141 32.2552 21.0444 32.8647C20.0607 33.5 18.6524 33.8134 16.8405 33.8134H8.42419ZM14.4737 19.1324H15.7348C16.3108 19.1324 16.6807 18.9649 16.8489 18.6258C17.0208 18.244 17.1043 17.8268 17.0927 17.4067V15.0414C17.0927 14.2859 16.6513 13.9039 15.7727 13.9039H14.4737V19.1324ZM15.0916 29.6538C16.7031 29.6538 17.5089 29.0743 17.5089 27.9152V24.9747C17.538 24.4174 17.3986 23.8644 17.1095 23.3907C16.8433 23.0044 16.3472 22.8112 15.6213 22.8112H14.4737V29.628C14.7539 29.6452 14.9641 29.6538 15.1042 29.6538H15.0916Z" fill="white"/>
<path d="M33.0005 34.0109C31.1172 34.0109 29.6178 33.7433 28.5023 33.2082C27.464 32.7477 26.6162 31.9306 26.1061 30.8987C25.5962 29.7591 25.3488 28.5153 25.383 27.2628V19.2183C25.3402 18.3867 25.5118 17.5582 25.8807 16.8154C26.2495 16.0727 26.8027 15.4418 27.485 14.9857C28.8863 14.0298 30.8257 13.5505 33.3032 13.5476C38.3816 13.5476 40.9208 15.4378 40.9208 19.2183V20.6735C40.9208 22.4392 40.8969 23.6254 40.8493 24.2321H31.7099V28.0956C31.7096 28.4467 31.7391 28.7971 31.7982 29.143C31.8498 29.4661 31.9965 29.7655 32.2186 30.0015C32.3533 30.1241 32.5113 30.2171 32.6827 30.2747C32.8541 30.3323 33.0353 30.3533 33.2149 30.3364C33.8708 30.3364 34.2827 30.1174 34.4467 29.6882C34.6287 29.1443 34.7127 28.5713 34.6947 27.9968V26.0694H40.9712V27.207C41.012 28.5024 40.7617 29.7902 40.2397 30.9717C39.7171 32.0145 38.8396 32.8266 37.772 33.2554C36.5865 33.7619 34.996 34.0138 33.0005 34.0109ZM31.6595 21.8325H34.6527V19.1324C34.697 18.5881 34.5735 18.0433 34.2996 17.5742C34.1726 17.4149 34.0102 17.289 33.826 17.2068C33.6417 17.1247 33.4408 17.0887 33.2402 17.102C33.0242 17.0883 32.8079 17.1218 32.6057 17.2003C32.4034 17.2788 32.2199 17.4004 32.0673 17.557C31.7446 18.0127 31.5952 18.5726 31.6469 19.1324L31.6595 21.8325Z" fill="white"/>
<path d="M42.043 1H6.95698C3.66703 1 1 3.72335 1 7.08276V37.9172C1 41.2767 3.66703 44 6.95698 44H42.043C45.333 44 48 41.2767 48 37.9172V7.08276C48 3.72335 45.333 1 42.043 1Z" stroke="#5984C0" strokeWidth="1.99" strokeMiterlimit="10"/>
</svg>
